<mxfile host="app.diagrams.net" modified="2024-02-06T17:52:49.508Z" agent="Mozilla/5.0 (Windows NT 10.0; Win64; x64; rv:122.0) Gecko/20100101 Firefox/122.0" version="23.1.1" etag="nN4kboRWPOxsJQ7Kwxz7" type="github">
  <diagram name="Page-1" id="3Db1U_O0Vxqxgqlxtz8d">
    <mxGraphModel>
      <root>
        <mxCell id="0" />
        <mxCell id="1" parent="0" />
      </root>
    </mxGraphModel>
  </diagram>
</mxfile>
